<?xml version="1.0" encoding="UTF-8" standalone="no"?>
<!-- Created with Inkscape (http://www.inkscape.org/) -->

<svg
   width="500"
   height="500"
   viewBox="0 0 132.29166 132.29167"
   version="1.1"
   id="svg1"
   xml:space="preserve"
   inkscape:export-filename="../icon_light.png"
   inkscape:export-xdpi="96"
   inkscape:export-ydpi="96"
   inkscape:version="1.3.2 (091e20e, 2023-11-25)"
   sodipodi:docname="JSONdb_icon.svg"
   xmlns:inkscape="http://www.inkscape.org/namespaces/inkscape"
   xmlns:sodipodi="http://sodipodi.sourceforge.net/DTD/sodipodi-0.dtd"
   xmlns="http://www.w3.org/2000/svg"
   xmlns:svg="http://www.w3.org/2000/svg"><sodipodi:namedview
     id="namedview1"
     pagecolor="#505050"
     bordercolor="#eeeeee"
     borderopacity="1"
     inkscape:showpageshadow="0"
     inkscape:pageopacity="0"
     inkscape:pagecheckerboard="0"
     inkscape:deskcolor="#505050"
     inkscape:document-units="mm"
     inkscape:export-bgcolor="#00000000"
     inkscape:zoom="0.8267626"
     inkscape:cx="315.68917"
     inkscape:cy="182.64009"
     inkscape:window-width="1800"
     inkscape:window-height="1039"
     inkscape:window-x="0"
     inkscape:window-y="44"
     inkscape:window-maximized="1"
     inkscape:current-layer="layer1" /><defs
     id="defs1" /><g
     inkscape:label="Layer 1"
     inkscape:groupmode="layer"
     id="layer1"><text
       xml:space="preserve"
       style="font-size:84.7382px;font-family:'JetBrains Mono';-inkscape-font-specification:'JetBrains Mono';fill:#f9f9f9;fill-opacity:1;stroke-width:7.07261;stroke-linecap:round;stroke-linejoin:round"
       x="-6.3553667"
       y="93.09095"
       id="text1"
       transform="scale(0.94616994,1.0568926)"><tspan
         sodipodi:role="line"
         id="tspan1"
         style="font-style:normal;font-variant:normal;font-weight:normal;font-stretch:normal;font-family:'JetBrains Mono';-inkscape-font-specification:'JetBrains Mono';fill:#f9f9f9;fill-opacity:1;stroke-width:7.07261"
         x="-6.3553667"
         y="93.09095">{ }</tspan></text><g
       style="fill:#ffd700;fill-opacity:1"
       id="g6"
       transform="matrix(3.8717942,0,0,3.8717942,35.17148,35.171867)"><path
         fill-rule="evenodd"
         d="M 15.528,2.973 A 0.75,0.75 0 0 1 16,3.669 v 8.662 a 0.75,0.75 0 0 1 -0.472,0.696 l -7.25,2.9 a 0.75,0.75 0 0 1 -0.557,0 l -7.25,-2.9 A 0.75,0.75 0 0 1 0,12.331 V 3.669 A 0.75,0.75 0 0 1 0.471,2.973 L 7.443,0.184 7.447,0.183 7.721,0.073 a 0.75,0.75 0 0 1 0.558,0 l 0.274,0.11 0.004,0.001 z M 14.154,3.5 8,5.962 1.846,3.5 1,3.839 v 0.4 l 6.5,2.6 v 7.922 l 0.5,0.2 0.5,-0.2 V 6.84 L 15,4.24 V 3.84 L 14.154,3.501 Z"
         id="path1"
         style="fill:#ffd700;fill-opacity:1" /></g></g></svg>
